<svg height="447pt" viewBox="-55 0 447 447.2" width="447pt" xmlns="http://www.w3.org/2000/svg"><path d="m.101562 236 16 16v51.199219c0 2.402343.796876 4.800781 3.199219 6.402343l12.800781 9.597657v-84l-32-26.398438zm0 0"/><path d="m143.300781 239.199219c8 0 15.199219 4 20 10.402343l4.800781 7.199219 4.796876-7.199219c4.800781-6.402343 12-10.402343 20-10.402343h61.601562l33.601562-20-48.800781-36h-142.402343l-48.796876 36 33.597657 20zm72.800781-32h40v16h-40zm-40 0h24v16h-24zm-40 0h24v16h-24zm-56 0h40v16h-40zm0 0"/><path d="m144.101562 151.199219h48v16h-48zm0 0"/><path d="m160.898438 296.800781c-1.597657 1.597657-.796876 4.800781.800781 5.597657.800781.800781 1.601562.800781 2.402343.800781h7.199219c2.398438 0 4-1.597657 4-4 0-.800781 0-1.597657-.800781-2.398438l-6.398438-11.199219zm0 0"/><path d="m176.101562 4-8-4-8 4v3.199219h16zm0 0"/><path d="m190.5 55.199219 9.601562-4.800781v-21.597657l-17.601562-5.601562h-28.800781l-17.597657 5.601562v21.597657l9.597657 4.800781zm0 0"/><path d="m197.699219 135.199219 18.402343-12v-13.597657l-24.800781-6.402343h-46.402343l-24.796876 6.402343v13.597657l18.398438 12zm0 0"/><path d="m152.101562 71.199219h32v16h-32zm0 0"/><path d="m120.101562 291.199219c0 2.210937-1.792968 4-4 4-2.210937 0-4-1.789063-4-4 0-2.207031 1.789063-4 4-4 2.207032 0 4 1.792969 4 4zm0 0"/><path d="m224.101562 291.199219c0 2.210937-1.792968 4-4 4-2.210937 0-4-1.789063-4-4 0-2.207031 1.789063-4 4-4 2.207032 0 4 1.792969 4 4zm0 0"/><path d="m192.898438 255.199219c-2.398438 0-4.796876 1.601562-6.398438 3.199219l-8 12.800781 11.199219 16.800781c6.402343 9.601562 4 21.601562-5.597657 28-4 2.398438-8 3.199219-12 3.199219h-7.203124c-11.199219 0-20-8.800781-20-20 0-4 .800781-8 3.203124-11.199219l11.199219-16.800781-8-12.800781c-1.601562-2.398438-4-3.199219-6.402343-3.199219h-65.597657l-31.199219-17.597657v65.597657h40v8c0 8.800781 7.199219 16 16 16h32v16h-16c-4.800781 0-8 3.199219-8 8s3.199219 8 8 8c12 0 22.398438-6.398438 27.199219-16.800781l7.199219-15.199219h25.601562l7.199219 15.199219c4.800781 10.402343 16 16.800781 27.199219 16.800781 4.800781 0 8-3.199219 8-8s-3.199219-8-8-8h-16v-16h32c8.800781 0 16-7.199219 16-16v-8h40v-65.597657l-28 17.597657zm-76.796876 56c-11.203124 0-20-8.800781-20-20s8.796876-20 20-20c11.199219 0 20 8.800781 20 20s-8.800781 20-20 20zm104 0c-11.203124 0-20-8.800781-20-20s8.796876-20 20-20c11.199219 0 20 8.800781 20 20s-8.800781 20-20 20zm0 0"/><path d="m304.101562 243.199219v84l12.796876-9.597657c2.402343-1.601562 3.203124-4 3.203124-6.402343v-51.199219l16-16v-28zm0 0"/><path d="m238.5 342.398438c.800781 2.402343 1.601562 5.601562 1.601562 8.800781 0 13.601562-10.402343 24-24 24-17.601562 0-34.402343-9.597657-41.601562-25.597657l-3.199219-6.402343h-6.402343l-3.199219 6.402343c-8 16-24 25.597657-41.597657 25.597657-13.601562 0-24-10.398438-24-24 0-3.199219.796876-5.597657 1.597657-8.800781-12-2.398438-21.597657-11.199219-24.800781-23.199219h-24.796876v27.199219c0 9.601562 5.597657 18.402343 14.398438 21.601562l51.199219 23.199219h22.402343c12.796876 0 24.796876 6.402343 32 16 7.199219-10.398438 19.199219-16 32-16h22.398438l51.199219-23.199219c8.800781-4 14.402343-12.800781 14.402343-21.601562v-27.199219h-24.800781c-3.199219 12-12.800781 20.800781-24.800781 23.199219zm0 0"/><path d="m216.101562 407.199219h-16c-13.601562 0-24 10.402343-24 24h-16c0-13.597657-10.402343-24-24-24h-16v10.402343l-16 24v5.597657h128v-5.597657l-16-24zm0 0"/></svg>